<?xml version="1.0" encoding="UTF-8"?>
<svg version="1.1" xmlns="http://www.w3.org/2000/svg" width="225" height="225">
<path d="M0 0 C74.25 0 148.5 0 225 0 C225 74.25 225 148.5 225 225 C150.75 225 76.5 225 0 225 C0 150.75 0 76.5 0 0 Z " fill="#F6F6F6" transform="translate(0,0)"/>
<path d="M0 0 C4.76709903 1.76559223 7.56511083 5.62501103 10.1328125 9.875 C12.64877835 16.04024965 11.06097294 23.56302359 9.640625 29.86328125 C8.74262051 34.26021785 8.09532331 38.68661078 7.4375 43.125 C7.24740356 44.39621704 7.24740356 44.39621704 7.0534668 45.69311523 C6.30031925 50.78817078 5.61993158 55.88704048 5 61 C5.46148438 60.28714844 5.92296875 59.57429688 6.3984375 58.83984375 C13.6229391 48.23153408 23.21200115 40.6813546 36 38 C49.71587556 37.06134371 62.50003123 40.18609061 73.3828125 48.91015625 C75.97327634 51.46268442 77.97852857 53.96779285 80 57 C79.14453125 59.92578125 79.14453125 59.92578125 77.8125 63.3125 C76.58479784 66.74420903 76.58479784 66.74420903 76 70 C78.06644799 73.39645118 78.06644799 73.39645118 81 76 C81.68915434 78.69625349 81.81063651 81.20688857 82 84 C82.33 84.33 82.66 84.66 83 85 C83.33 84.34 83.66 83.68 84 83 C88.62 83 93.24 83 98 83 C98.33 80.69 98.66 78.38 99 76 C100.98 76 102.96 76 105 76 C105 76.66 105 77.32 105 78 C104.01 78 103.02 78 102 78 C102 78.66 102 79.32 102 80 C102.99 80 103.98 80 105 80 C105 80.66 105 81.32 105 82 C104.01 82 103.02 82 102 82 C102.04125 82.78375 102.0825 83.5675 102.125 84.375 C102 87 102 87 100 89 C100.09627158 91.00681792 100.09627158 91.00681792 100.6796875 93.24609375 C100.86660156 94.08333984 101.05351563 94.92058594 101.24609375 95.78320312 C101.45363281 96.65912109 101.66117187 97.53503906 101.875 98.4375 C102.2707569 100.16478737 102.66408978 101.89263241 103.0546875 103.62109375 C103.23499512 104.3886499 103.41530273 105.15620605 103.60107422 105.94702148 C104 108 104 108 104 111 C102.02 110.505 102.02 110.505 100 110 C100 109.01 100 108.02 100 107 C98.68 107 97.36 107 96 107 C96 108.32 96 109.64 96 111 C95.01 111 94.02 111 93 111 C93.33 106.71 93.66 102.42 94 98 C93.01 98 92.02 98 91 98 C90.34 102.29 89.68 106.58 89 111 C88.01 111 87.02 111 86 111 C85.87882812 110.14535156 85.75765625 109.29070312 85.6328125 108.41015625 C85.46523437 107.30542969 85.29765625 106.20070313 85.125 105.0625 C84.96257812 103.96035156 84.80015625 102.85820312 84.6328125 101.72265625 C84.31957031 100.37494141 84.31957031 100.37494141 84 99 C83.34 98.67 82.68 98.34 82 98 C81.67 102.29 81.34 106.58 81 111 C79.68 111 78.36 111 77 111 C76.67 110.01 76.34 109.02 76 108 C75.505 109.485 75.505 109.485 75 111 C73.125 110.8125 73.125 110.8125 71 110 C69.75 107.4375 69.75 107.4375 69 105 C68.67 106.98 68.34 108.96 68 111 C66.68 111 65.36 111 64 111 C63.67 107.7 63.34 104.4 63 101 C63 104.3 63 107.6 63 111 C61.68 111 60.36 111 59 111 C59 109.68 59 108.36 59 107 C57.68 107 56.36 107 55 107 C55 108.32 55 109.64 55 111 C50.38 111 45.76 111 41 111 C41.53753096 104.81839396 43.54582388 99.673142 46 94 C44.35 94 42.7 94 41 94 C41 92.35 41 90.7 41 89 C30.11 88.505 30.11 88.505 19 88 C19 87.34 19 86.68 19 86 C20.328125 84.87890625 20.328125 84.87890625 22.25 83.5625 C26.06708733 80.80120279 29.55190792 77.76492095 33 74.5625 C33.76666992 73.8504541 33.76666992 73.8504541 34.54882812 73.12402344 C35.05349609 72.65512695 35.55816406 72.18623047 36.078125 71.703125 C39.65528963 68.39376949 43.3087582 65.18098191 47 62 C51.11318193 63.64924686 53.97885369 66.61189392 57.125 69.625 C62.53885514 74.72564419 68.09566408 79.4684555 74 84 C72.3972783 79.79285553 69.26639291 77.1859734 66 74.25 C65.4212915 73.72575439 64.84258301 73.20150879 64.24633789 72.66137695 C62.50665621 71.09698047 60.75594723 69.54610119 59 68 C58.02933594 67.14277344 57.05867188 66.28554687 56.05859375 65.40234375 C52.68293998 62.4833806 52.68293998 62.4833806 49 60 C45.8548724 60.41974596 44.18148375 61.43814034 41.93359375 63.625 C41.37099854 64.1624585 40.80840332 64.69991699 40.22875977 65.25366211 C39.63764404 65.82995361 39.04652832 66.40624512 38.4375 67 C33.26200213 71.93191319 28.00114501 76.58136747 22.421875 81.0546875 C19.21555641 83.63008534 16.1075674 86.30677492 13 89 C17.80969666 99.33194096 23.06233521 104.40031727 33 110 C33.62519531 110.35449219 34.25039063 110.70898438 34.89453125 111.07421875 C41.8898598 114.31133467 50.43740901 113.75077825 58 114 C52.23422093 117.32897175 46.05854931 116.60590479 39.70703125 115.34765625 C32.11317644 113.27336766 26.85098466 110.1781815 21 105 C19.67528596 103.98860963 18.34438899 102.98508681 17 102 C19.07880376 106.6250897 21.9288553 109.07386474 26 112 C26.680625 112.49371094 27.36125 112.98742187 28.0625 113.49609375 C37.85277013 119.1802473 50.08168539 117.42706129 61 117 C57.01706051 120.98293949 51.30063846 121.26489967 45.89868164 121.38061523 C30.57423797 121.34056726 20.25613862 116.1116183 9.125 105.5625 C5.38510465 101.6645809 2.89294874 98.04466034 1 93 C0.71511719 92.33355469 0.43023437 91.66710937 0.13671875 90.98046875 C-3.13681277 82.12176498 -2.75413585 72.33197079 -3 63 C-3.78375 62.9175 -4.5675 62.835 -5.375 62.75 C-8 62 -8 62 -9.24609375 60.2890625 C-10.11190496 57.66022638 -10.62419115 55.10798458 -11.0625 52.375 C-11.6380335 48.56029279 -11.6380335 48.56029279 -13 45 C-9.03188547 46.32270484 -6.47800581 47.58206095 -4 51 C-3.33424824 53.51227079 -2.87612444 55.99247316 -2.4921875 58.5625 C-1.9962245 61.01869772 -1.15656627 62.79524093 0 65 C0.14622803 64.26885986 0.29245605 63.53771973 0.44311523 62.78442383 C5 40 5 40 5.56616211 37.38183594 C5.96813267 35.17495651 6.12899054 33.17190005 6.1328125 30.93359375 C6.13410156 30.20076172 6.13539062 29.46792969 6.13671875 28.71289062 C6.13091797 27.58657227 6.13091797 27.58657227 6.125 26.4375 C6.12886719 25.68275391 6.13273437 24.92800781 6.13671875 24.15039062 C6.13034103 20.5310337 5.88361658 17.53446631 5 14 C5 19.61 5 25.22 5 31 C1 29 1 29 0 27 C-0.33394833 21.5389626 0.06430113 16.38026853 1 11 C1.19259944 7.14060352 1.2362837 3.70885111 0 0 Z " fill="#F0F4F1" transform="translate(21,45)"/>
<path d="M0 0 C4.23877321 2.2464343 7.33433118 5.49105809 10.7421875 8.83203125 C15.56312116 13.52993541 20.32497221 17.69471847 25.8671875 21.51953125 C27.57215287 23.14699819 29.24615782 24.80844436 30.8671875 26.51953125 C31.4653125 27.11765625 32.0634375 27.71578125 32.6796875 28.33203125 C33.0715625 28.72390625 33.4634375 29.11578125 33.8671875 29.51953125 C34.1971875 28.85953125 34.5271875 28.19953125 34.8671875 27.51953125 C39.4871875 27.51953125 44.1071875 27.51953125 48.8671875 27.51953125 C49.1971875 25.20953125 49.5271875 22.89953125 49.8671875 20.51953125 C51.8471875 20.51953125 53.8271875 20.51953125 55.8671875 20.51953125 C55.8671875 21.17953125 55.8671875 21.83953125 55.8671875 22.51953125 C54.8771875 22.51953125 53.8871875 22.51953125 52.8671875 22.51953125 C52.8671875 23.17953125 52.8671875 23.83953125 52.8671875 24.51953125 C53.8571875 24.51953125 54.8471875 24.51953125 55.8671875 24.51953125 C55.8671875 25.17953125 55.8671875 25.83953125 55.8671875 26.51953125 C54.8771875 26.51953125 53.8871875 26.51953125 52.8671875 26.51953125 C52.9084375 27.30328125 52.9496875 28.08703125 52.9921875 28.89453125 C52.8671875 31.51953125 52.8671875 31.51953125 50.8671875 33.51953125 C50.96345908 35.52634917 50.96345908 35.52634917 51.546875 37.765625 C51.73378906 38.60287109 51.92070313 39.44011719 52.11328125 40.30273438 C52.32082031 41.17865234 52.52835937 42.05457031 52.7421875 42.95703125 C53.1379444 44.68431862 53.53127728 46.41216366 53.921875 48.140625 C54.10218262 48.90818115 54.28249023 49.6757373 54.46826172 50.46655273 C54.8671875 52.51953125 54.8671875 52.51953125 54.8671875 55.51953125 C52.8871875 55.02453125 52.8871875 55.02453125 50.8671875 54.51953125 C50.8671875 53.52953125 50.8671875 52.53953125 50.8671875 51.51953125 C49.5471875 51.51953125 48.2271875 51.51953125 46.8671875 51.51953125 C46.8671875 52.83953125 46.8671875 54.15953125 46.8671875 55.51953125 C45.8771875 55.51953125 44.8871875 55.51953125 43.8671875 55.51953125 C44.1971875 51.22953125 44.5271875 46.93953125 44.8671875 42.51953125 C43.8771875 42.51953125 42.8871875 42.51953125 41.8671875 42.51953125 C41.2071875 46.80953125 40.5471875 51.09953125 39.8671875 55.51953125 C38.8771875 55.51953125 37.8871875 55.51953125 36.8671875 55.51953125 C36.68542969 54.23755859 36.68542969 54.23755859 36.5 52.9296875 C36.33242187 51.82496094 36.16484375 50.72023437 35.9921875 49.58203125 C35.82976562 48.47988281 35.66734375 47.37773437 35.5 46.2421875 C35.18675781 44.89447266 35.18675781 44.89447266 34.8671875 43.51953125 C34.2071875 43.18953125 33.5471875 42.85953125 32.8671875 42.51953125 C32.5371875 46.80953125 32.2071875 51.09953125 31.8671875 55.51953125 C30.5471875 55.51953125 29.2271875 55.51953125 27.8671875 55.51953125 C27.5371875 54.52953125 27.2071875 53.53953125 26.8671875 52.51953125 C26.5371875 53.50953125 26.2071875 54.49953125 25.8671875 55.51953125 C23.9921875 55.33203125 23.9921875 55.33203125 21.8671875 54.51953125 C20.6171875 51.95703125 20.6171875 51.95703125 19.8671875 49.51953125 C19.5371875 51.49953125 19.2071875 53.47953125 18.8671875 55.51953125 C17.5471875 55.51953125 16.2271875 55.51953125 14.8671875 55.51953125 C14.5371875 52.21953125 14.2071875 48.91953125 13.8671875 45.51953125 C13.8671875 48.81953125 13.8671875 52.11953125 13.8671875 55.51953125 C12.5471875 55.51953125 11.2271875 55.51953125 9.8671875 55.51953125 C9.8671875 54.19953125 9.8671875 52.87953125 9.8671875 51.51953125 C8.5471875 51.51953125 7.2271875 51.51953125 5.8671875 51.51953125 C5.8671875 52.83953125 5.8671875 54.15953125 5.8671875 55.51953125 C1.2471875 55.51953125 -3.3728125 55.51953125 -8.1328125 55.51953125 C-7.59528154 49.33792521 -5.58698862 44.19267325 -3.1328125 38.51953125 C-4.7828125 38.51953125 -6.4328125 38.51953125 -8.1328125 38.51953125 C-8.1328125 36.86953125 -8.1328125 35.21953125 -8.1328125 33.51953125 C-15.3928125 33.18953125 -22.6528125 32.85953125 -30.1328125 32.51953125 C-30.1328125 31.85953125 -30.1328125 31.19953125 -30.1328125 30.51953125 C-28.8046875 29.3984375 -28.8046875 29.3984375 -26.8828125 28.08203125 C-23.06572517 25.32073404 -19.58090458 22.2844522 -16.1328125 19.08203125 C-15.62169922 18.60733398 -15.11058594 18.13263672 -14.58398438 17.64355469 C-14.07931641 17.1746582 -13.57464844 16.70576172 -13.0546875 16.22265625 C-9.47752287 12.91330074 -5.8240543 9.70051316 -2.1328125 6.51953125 C1.98036943 8.16877811 4.84604119 11.13142517 7.9921875 14.14453125 C13.40604264 19.24517544 18.96285158 23.98798675 24.8671875 28.51953125 C23.2644658 24.31238678 20.13358041 21.70550465 16.8671875 18.76953125 C16.288479 18.24528564 15.70977051 17.72104004 15.11352539 17.1809082 C13.37384371 15.61651172 11.62313473 14.06563244 9.8671875 12.51953125 C8.89652344 11.66230469 7.92585938 10.80507812 6.92578125 9.921875 C3.55012748 7.00291185 3.55012748 7.00291185 -0.1328125 4.51953125 C-3.2779401 4.93927721 -4.95132875 5.95767159 -7.19921875 8.14453125 C-7.76205566 8.68215088 -8.32489258 9.21977051 -8.90478516 9.77368164 C-9.49565918 10.34981201 -10.0865332 10.92594238 -10.6953125 11.51953125 C-15.89871353 16.48331095 -21.18773128 21.15116147 -26.828125 25.6171875 C-29.19892346 27.47537392 -29.19892346 27.47537392 -31.1875 29.828125 C-31.82945313 30.38628906 -32.47140625 30.94445312 -33.1328125 31.51953125 C-35.3828125 31.26953125 -35.3828125 31.26953125 -37.1328125 30.51953125 C-33.36199095 26.51705514 -29.43178149 22.88849529 -25.1328125 19.45703125 C-19.51933672 14.95219742 -14.29570946 10.08992203 -9.08398438 5.12866211 C-8.46974609 4.54608643 -7.85550781 3.96351074 -7.22265625 3.36328125 C-6.40075806 2.57727539 -6.40075806 2.57727539 -5.56225586 1.77539062 C-3.51712401 -0.02139131 -2.71856209 -0.61242333 0 0 Z " fill="#DFEBE4" transform="translate(70.1328125,100.48046875)"/>
<path d="M0 0 C4.76709903 1.76559223 7.56511083 5.62501103 10.1328125 9.875 C12.64877835 16.04024965 11.06097294 23.56302359 9.640625 29.86328125 C8.74262051 34.26021785 8.09532331 38.68661078 7.4375 43.125 C7.24740356 44.39621704 7.24740356 44.39621704 7.0534668 45.69311523 C6.30031925 50.78817078 5.61993158 55.88704048 5 61 C5.46148438 60.28714844 5.92296875 59.57429688 6.3984375 58.83984375 C13.6229391 48.23153408 23.21200115 40.6813546 36 38 C45.12307649 37.37565538 53.61437896 38.21294534 62 42 C58.98968256 42.93423645 58.13349732 43.04449911 55 42 C41.94616908 41.08683064 31.37901248 42.3749806 21 51.0859375 C17.83216573 54.1176539 15.31641412 57.28247217 13 61 C12.58621094 61.61875 12.17242187 62.2375 11.74609375 62.875 C7.09510195 71.17223972 7.94491878 82.17259777 9.58984375 91.2578125 C12.77545823 101.56334874 20.44589144 108.67546839 29.640625 113.84375 C34.18577375 116.07117389 37.62438737 117.25000655 42.73828125 117.1953125 C43.80498047 117.18886719 44.87167969 117.18242187 45.97070312 117.17578125 C47.07349609 117.15902344 48.17628906 117.14226562 49.3125 117.125 C50.43462891 117.11597656 51.55675781 117.10695313 52.71289062 117.09765625 C55.47547909 117.07414486 58.23762932 117.04128155 61 117 C57.01706051 120.98293949 51.30063846 121.26489967 45.89868164 121.38061523 C30.57423797 121.34056726 20.25613862 116.1116183 9.125 105.5625 C5.38510465 101.6645809 2.89294874 98.04466034 1 93 C0.71511719 92.33355469 0.43023437 91.66710937 0.13671875 90.98046875 C-3.13681277 82.12176498 -2.75413585 72.33197079 -3 63 C-3.78375 62.9175 -4.5675 62.835 -5.375 62.75 C-8 62 -8 62 -9.24609375 60.2890625 C-10.11190496 57.66022638 -10.62419115 55.10798458 -11.0625 52.375 C-11.6380335 48.56029279 -11.6380335 48.56029279 -13 45 C-9.03188547 46.32270484 -6.47800581 47.58206095 -4 51 C-3.33424824 53.51227079 -2.87612444 55.99247316 -2.4921875 58.5625 C-1.9962245 61.01869772 -1.15656627 62.79524093 0 65 C0.14622803 64.26885986 0.29245605 63.53771973 0.44311523 62.78442383 C5 40 5 40 5.56616211 37.38183594 C5.96813267 35.17495651 6.12899054 33.17190005 6.1328125 30.93359375 C6.13410156 30.20076172 6.13539062 29.46792969 6.13671875 28.71289062 C6.13091797 27.58657227 6.13091797 27.58657227 6.125 26.4375 C6.12886719 25.68275391 6.13273437 24.92800781 6.13671875 24.15039062 C6.13034103 20.5310337 5.88361658 17.53446631 5 14 C5 19.61 5 25.22 5 31 C1 29 1 29 0 27 C-0.33394833 21.5389626 0.06430113 16.38026853 1 11 C1.19259944 7.14060352 1.2362837 3.70885111 0 0 Z " fill="#178245" transform="translate(21,45)"/>
<path d="M0 0 C0.99 0 1.98 0 3 0 C3.99 2.97 4.98 5.94 6 9 C6.33 6.69 6.66 4.38 7 2 C6.34 2 5.68 2 5 2 C5 1.34 5 0.68 5 0 C7.31 0 9.62 0 12 0 C12 0.66 12 1.32 12 2 C11.34 2 10.68 2 10 2 C10.01160156 2.62648438 10.02320313 3.25296875 10.03515625 3.8984375 C10.04417969 4.71570313 10.05320313 5.53296875 10.0625 6.375 C10.07410156 7.18710938 10.08570313 7.99921875 10.09765625 8.8359375 C10 11 10 11 9 13 C10.32 13 11.64 13 13 13 C13 8.71 13 4.42 13 0 C14.32 0.33 15.64 0.66 17 1 C17.33 0.67 17.66 0.34 18 0 C19.66611905 -0.042721 21.33382885 -0.04063832 23 0 C23.66 0 24.32 0 25 0 C27.0625 0.3125 27.0625 0.3125 29 1 C29.33 1.99 29.66 2.98 30 4 C30.33 2.68 30.66 1.36 31 0 C31.66 0 32.32 0 33 0 C33 3.63 33 7.26 33 11 C31.68 11.33 30.36 11.66 29 12 C28.67 12.66 28.34 13.32 28 14 C28.763125 13.79375 29.52625 13.5875 30.3125 13.375 C33 13 33 13 36 15 C36 16.32 36 17.64 36 19 C34.02 18.67 32.04 18.34 30 18 C30.77537109 18.74443359 30.77537109 18.74443359 31.56640625 19.50390625 C36.98536351 25.09253731 36.98536351 25.09253731 37.0625 29.875 C36 33 36 33 34 35 C31.5 35.25 31.5 35.25 29 35 C28.34 34.34 27.68 33.68 27 33 C27 31.68 27 30.36 27 29 C27.99 29 28.98 29 30 29 C30 29.66 30 30.32 30 31 C30.99 31 31.98 31 33 31 C32.00721577 28.02164731 31.17927845 26.17927845 28.9375 23.9375 C26.89665413 21.89665413 26.40069802 20.80488612 26 18 C23.49985885 21.74095194 24.09957696 24.44209421 24.875 28.75 C25.07867187 29.92046875 25.28234375 31.0909375 25.4921875 32.296875 C25.65976563 33.18890625 25.82734375 34.0809375 26 35 C24.68 35 23.36 35 22 35 C22 33.68 22 32.36 22 31 C20.68 31 19.36 31 18 31 C18 32.32 18 33.64 18 35 C16.68 35 15.36 35 14 35 C14 31.37 14 27.74 14 24 C13.71125 25.44375 13.4225 26.8875 13.125 28.375 C12.25 32.75 12.25 32.75 10 35 C7.5625 35.375 7.5625 35.375 5 35 C2.93452228 33.18903613 2.08509745 31.7222351 1.76245117 28.98388672 C1.70448871 26.56580507 1.73883874 24.16760036 1.8125 21.75 C1.82603516 20.90953125 1.83957031 20.0690625 1.85351562 19.203125 C1.88876536 17.13514062 1.9425698 15.06748729 2 13 C2.99 13 3.98 13 5 13 C5 12.34 5 11.68 5 11 C4.34 11 3.68 11 3 11 C3 10.34 3 9.68 3 9 C2.01 9 1.02 9 0 9 C0 9.66 0 10.32 0 11 C-0.66 11 -1.32 11 -2 11 C-1.34 7.37 -0.68 3.74 0 0 Z " fill="#ECF2EE" transform="translate(163,121)"/>
<path d="M0 0 C4.08562531 1.644095 6.93489553 4.5676099 10.0625 7.5625 C15.18025487 12.38977193 20.42769228 16.89815027 25.953125 21.2578125 C28 23 28 23 29 25 C10.52 25 -7.96 25 -27 25 C-21.36281179 19.36281179 -21.36281179 19.36281179 -18.73046875 16.9140625 C-18.15506348 16.37869873 -17.5796582 15.84333496 -16.98681641 15.29174805 C-16.39304199 14.74172119 -15.79926758 14.19169434 -15.1875 13.625 C-14.26590088 12.76998901 -14.26590088 12.76998901 -13.32568359 11.89770508 C-8.9522054 7.85209369 -4.53079392 3.86946686 0 0 Z " fill="#0F901F" transform="translate(68,107)"/>
<path d="M0 0 C0.99 0 1.98 0 3 0 C3.99 2.97 4.98 5.94 6 9 C6.33 6.69 6.66 4.38 7 2 C6.34 2 5.68 2 5 2 C5 1.34 5 0.68 5 0 C7.31 0 9.62 0 12 0 C12 0.66 12 1.32 12 2 C11.34 2 10.68 2 10 2 C10.01160156 2.62648438 10.02320313 3.25296875 10.03515625 3.8984375 C10.04417969 4.71570313 10.05320313 5.53296875 10.0625 6.375 C10.07410156 7.18710938 10.08570313 7.99921875 10.09765625 8.8359375 C10 11 10 11 9 13 C10.32 13 11.64 13 13 13 C13 8.71 13 4.42 13 0 C13.99 0 14.98 0 16 0 C16.66 4.29 17.32 8.58 18 13 C19.32 13.33 20.64 13.66 22 14 C20.68 14 19.36 14 18 14 C17.7834375 15.8253125 17.7834375 15.8253125 17.5625 17.6875 C17.17219047 20.82670377 16.67648144 23.9075134 16 27 C15.34 26.01 14.68 25.02 14 24 C13.87882813 24.62648437 13.75765625 25.25296875 13.6328125 25.8984375 C13.46523437 26.71570313 13.29765625 27.53296875 13.125 28.375 C12.96257812 29.18710938 12.80015625 29.99921875 12.6328125 30.8359375 C12 33 12 33 10 35 C7.5625 35.375 7.5625 35.375 5 35 C2.93452228 33.18903613 2.08509745 31.7222351 1.76245117 28.98388672 C1.70448871 26.56580507 1.73883874 24.16760036 1.8125 21.75 C1.82603516 20.90953125 1.83957031 20.0690625 1.85351562 19.203125 C1.88876536 17.13514062 1.9425698 15.06748729 2 13 C2.99 13 3.98 13 5 13 C5 12.34 5 11.68 5 11 C4.34 11 3.68 11 3 11 C3 10.34 3 9.68 3 9 C2.01 9 1.02 9 0 9 C0 9.66 0 10.32 0 11 C-0.66 11 -1.32 11 -2 11 C-1.34 7.37 -0.68 3.74 0 0 Z " fill="#DEE9E2" transform="translate(163,121)"/>
<path d="M0 0 C1.98 0 3.96 0 6 0 C6 0.66 6 1.32 6 2 C5.01 2 4.02 2 3 2 C3 2.66 3 3.32 3 4 C3.99 4 4.98 4 6 4 C6 4.66 6 5.32 6 6 C5.01 6 4.02 6 3 6 C3.04125 6.78375 3.0825 7.5675 3.125 8.375 C3 11 3 11 1 13 C1.09627158 15.00681792 1.09627158 15.00681792 1.6796875 17.24609375 C1.86660156 18.08333984 2.05351563 18.92058594 2.24609375 19.78320312 C2.45363281 20.65912109 2.66117188 21.53503906 2.875 22.4375 C3.2707569 24.16478737 3.66408978 25.89263241 4.0546875 27.62109375 C4.23499512 28.3886499 4.41530273 29.15620605 4.60107422 29.94702148 C5 32 5 32 5 35 C3.68 34.67 2.36 34.34 1 34 C1 33.01 1 32.02 1 31 C-0.32 31 -1.64 31 -3 31 C-3 32.32 -3 33.64 -3 35 C-3.99 35 -4.98 35 -6 35 C-5.67 30.71 -5.34 26.42 -5 22 C-5.99 22 -6.98 22 -8 22 C-7.34 19.36 -6.68 16.72 -6 14 C-7.32 14 -8.64 14 -10 14 C-9.938125 15.423125 -9.938125 15.423125 -9.875 16.875 C-10 20 -10 20 -12 22 C-12.42317708 19.98177083 -12.84635417 17.96354167 -13.26953125 15.9453125 C-13.92308838 13.62953451 -13.92308838 13.62953451 -17 12 C-16.01 12 -15.02 12 -14 12 C-14.33 10.35 -14.66 8.7 -15 7 C-10.38 7 -5.76 7 -1 7 C-0.67 4.69 -0.34 2.38 0 0 Z " fill="#EAF0ED" transform="translate(120,121)"/>
<path d="M0 0 C2.475 2.475 2.475 2.475 5 5 C2.36496274 5.87834575 0.62699023 6.16580989 -2.08984375 6.28125 C-2.87423828 6.31863281 -3.65863281 6.35601562 -4.46679688 6.39453125 C-5.28212891 6.42933594 -6.09746094 6.46414062 -6.9375 6.5 C-8.55094484 6.56920256 -10.16424039 6.64199857 -11.77734375 6.71875 C-12.49140381 6.74904297 -13.20546387 6.77933594 -13.94116211 6.81054688 C-16.0455878 7.00419496 -17.96654217 7.43494408 -20 8 C-20.18175781 9.2684375 -20.18175781 9.2684375 -20.3671875 10.5625 C-21.29083695 16.81489625 -22.32664417 22.90420377 -24 29 C-27.3 29 -30.6 29 -34 29 C-33.46246904 22.81839396 -31.45417612 17.673142 -29 12 C-30.65 12 -32.3 12 -34 12 C-34 10.35 -34 8.7 -34 7 C-41.26 6.67 -48.52 6.34 -56 6 C-55.67 5.34 -55.34 4.68 -55 4 C-36.85 4 -18.7 4 0 4 C0 2.68 0 1.36 0 0 Z " fill="#D6E7D9" transform="translate(96,127)"/>
<path d="M0 0 C0.75990234 -0.00386719 1.51980469 -0.00773437 2.30273438 -0.01171875 C6.2610597 -0.00484069 9.80090948 0.32288939 13.6875 1.125 C14.3475 0.795 15.0075 0.465 15.6875 0.125 C17.11091471 1.01007196 18.52593784 1.90864488 19.9375 2.8125 C20.72640625 3.31136719 21.5153125 3.81023437 22.328125 4.32421875 C24.93901182 6.31696515 26.73529673 8.49668964 28.6875 11.125 C24.54190907 11.24227273 20.39675138 11.31260933 16.25 11.375 C14.50299805 11.42527344 14.50299805 11.42527344 12.72070312 11.4765625 C4.21083929 11.57244829 -2.22103234 10.5179244 -8.875 5 C-10.3125 3.125 -10.3125 3.125 -10.3125 1.125 C-7.0770883 -0.49270585 -3.55042649 -0.01779662 0 0 Z " fill="#138142" transform="translate(69.3125,87.875)"/>
<path d="M0 0 C4.23877321 2.2464343 7.33433118 5.49105809 10.7421875 8.83203125 C15.56271559 13.52954019 20.32317943 17.69773361 25.8671875 21.51953125 C27.57399697 23.14506408 29.24378945 24.8106912 30.8671875 26.51953125 C31.7953125 27.44765625 32.7234375 28.37578125 33.6796875 29.33203125 C34.7625 30.41484375 34.7625 30.41484375 35.8671875 31.51953125 C33.73046875 31.8359375 33.73046875 31.8359375 30.8671875 31.51953125 C28.73052263 29.8897717 26.94154472 28.33627895 25.0546875 26.45703125 C23.9875445 25.43690828 22.91983627 24.41737627 21.8515625 23.3984375 C21.33787109 22.90102051 20.82417969 22.40360352 20.29492188 21.89111328 C17.26060214 18.97613239 14.06409677 16.25285858 10.8671875 13.51953125 C9.94550781 12.70742187 9.02382812 11.8953125 8.07421875 11.05859375 C7.09839844 10.22070312 6.12257812 9.3828125 5.1171875 8.51953125 C4.21484375 7.73578125 3.3125 6.95203125 2.3828125 6.14453125 C0.08568779 4.28141926 0.08568779 4.28141926 -2.09838867 4.75390625 C-4.32768415 5.59286828 -5.49932045 6.49078528 -7.19921875 8.14453125 C-7.76205566 8.68215088 -8.32489258 9.21977051 -8.90478516 9.77368164 C-9.49565918 10.34981201 -10.0865332 10.92594238 -10.6953125 11.51953125 C-15.89871353 16.48331095 -21.18773128 21.15116147 -26.828125 25.6171875 C-29.19892346 27.47537392 -29.19892346 27.47537392 -31.1875 29.828125 C-31.82945313 30.38628906 -32.47140625 30.94445312 -33.1328125 31.51953125 C-35.3828125 31.26953125 -35.3828125 31.26953125 -37.1328125 30.51953125 C-33.36199095 26.51705514 -29.43178149 22.88849529 -25.1328125 19.45703125 C-19.51933672 14.95219742 -14.29570946 10.08992203 -9.08398438 5.12866211 C-8.46974609 4.54608643 -7.85550781 3.96351074 -7.22265625 3.36328125 C-6.40075806 2.57727539 -6.40075806 2.57727539 -5.56225586 1.77539062 C-3.51712401 -0.02139131 -2.71856209 -0.61242333 0 0 Z " fill="#14911E" transform="translate(70.1328125,100.48046875)"/>
<path d="M0 0 C5.59488611 -0.28448573 8.22813607 -0.1840283 13 3 C12.65324219 3.94101563 12.30648437 4.88203125 11.94921875 5.8515625 C9.34883564 12.39108602 9.34883564 12.39108602 9.84765625 19.01953125 C11.19589577 20.38279294 12.59725125 21.69289321 14 23 C14.3125 26.875 14.3125 26.875 14 30 C11.96166576 28.7260411 9.96147874 27.38938077 8 26 C8 25.34 8 24.68 8 24 C7.4225 23.731875 6.845 23.46375 6.25 23.1875 C3.9674132 21.98280141 2.0262058 20.59201885 0 19 C0.495 17.515 0.495 17.515 1 16 C0.6732039 13.66574212 0.33859959 11.33257494 0 9 C-0.08591666 5.9976902 -0.06127844 3.00264368 0 0 Z " fill="#F6EDD1" transform="translate(88,98)"/>
<path d="M0 0 C4.01156308 1.85010894 6.80451194 4.75591345 9.9296875 7.83203125 C11.26201981 9.11432215 12.59534386 10.39558346 13.9296875 11.67578125 C14.56519531 12.289375 15.20070312 12.90296875 15.85546875 13.53515625 C18.53216897 16.0753507 21.34225403 18.44384055 24.19921875 20.77734375 C25.84026779 22.43195518 26.68363433 24.08490551 27.6171875 26.20703125 C22.85916396 24.75049343 19.80714187 21.90064156 16.3046875 18.51953125 C15.15408554 17.43703244 14.00304489 16.35499973 12.8515625 15.2734375 C11.77303631 14.25172541 10.69488025 13.2296224 9.6171875 12.20703125 C8.10653558 10.77951269 6.58776865 9.36043449 5.0546875 7.95703125 C4.47589844 7.415625 3.89710937 6.87421875 3.30078125 6.31640625 C1.39654729 4.84021707 1.39654729 4.84021707 -2.3828125 5.20703125 C-4.6086784 7.00008989 -6.60216273 8.77692299 -8.6328125 10.76953125 C-9.79107426 11.87171663 -10.94992716 12.97328114 -12.109375 14.07421875 C-12.66915039 14.61143555 -13.22892578 15.14865234 -13.80566406 15.70214844 C-15.83737681 17.64076722 -17.90854941 19.52938672 -20.0078125 21.39453125 C-20.59820312 21.92433594 -21.18859375 22.45414063 -21.796875 23 C-23.3828125 24.20703125 -23.3828125 24.20703125 -26.3828125 25.20703125 C-27.0428125 24.54703125 -27.7028125 23.88703125 -28.3828125 23.20703125 C-27.51140625 22.46839844 -26.64 21.72976562 -25.7421875 20.96875 C-24.5388854 19.94421838 -23.33577471 18.91946193 -22.1328125 17.89453125 C-21.5025415 17.35997314 -20.87227051 16.82541504 -20.22290039 16.2746582 C-17.0532774 13.56800938 -13.94781445 10.82976072 -10.95703125 7.92578125 C-10.4269043 7.41571533 -9.89677734 6.90564941 -9.35058594 6.38012695 C-7.89055242 4.96272045 -6.44678098 3.52861988 -5.00390625 2.09375 C-2.3828125 0.20703125 -2.3828125 0.20703125 0 0 Z " fill="#E5EFE7" transform="translate(69.3828125,103.79296875)"/>
<path d="M0 0 C1.32 0.33 2.64 0.66 4 1 C4.66 4.3 5.32 7.6 6 11 C6.66 11 7.32 11 8 11 C8.2165625 9.1128125 8.2165625 9.1128125 8.4375 7.1875 C8.73748686 4.57332877 9.15813297 2.52560108 10 0 C11.32 0 12.64 0 14 0 C14 6.93 14 13.86 14 21 C13.01 21 12.02 21 11 21 C10.67 18.36 10.34 15.72 10 13 C9.67 13.99 9.34 14.98 9 16 C7.68 16 6.36 16 5 16 C4.67 15.01 4.34 14.02 4 13 C3.67 15.64 3.34 18.28 3 21 C2.01 21 1.02 21 0 21 C0 14.07 0 7.14 0 0 Z " fill="#10803F" transform="translate(148,135)"/>
<path d="M0 0 C2.64 0 5.28 0 8 0 C10 2 10 2 10.23046875 4.05859375 C10.20919922 5.23615234 10.20919922 5.23615234 10.1875 6.4375 C10.17783203 7.61119141 10.17783203 7.61119141 10.16796875 8.80859375 C10 11 10 11 9 14 C9.59793673 16.35188447 10.25881795 18.68925595 11 21 C9.125 20.8125 9.125 20.8125 7 20 C5.75 17.4375 5.75 17.4375 5 15 C4.67 16.98 4.34 18.96 4 21 C2.68 21 1.36 21 0 21 C0 14.07 0 7.14 0 0 Z " fill="#358F5A" transform="translate(85,135)"/>
<path d="M0 0 C5.61 0 11.22 0 17 0 C17.66 5.61 18.32 11.22 19 17 C18.01 17.33 17.02 17.66 16 18 C13.72828049 15.89678839 11.45778162 13.79226355 9.1875 11.6875 C8.54490234 11.09259766 7.90230469 10.49769531 7.24023438 9.88476562 C6.61826172 9.30791016 5.99628906 8.73105469 5.35546875 8.13671875 C4.78465576 7.60780029 4.21384277 7.07888184 3.62573242 6.53393555 C2.0536737 5.05064301 0.52016282 3.5362705 -1 2 C-0.67 1.34 -0.34 0.68 0 0 Z " fill="#F3F4F1" transform="translate(71,98)"/>
<path d="M0 0 C0.99 0 1.98 0 3 0 C3.33 5.28 3.66 10.56 4 16 C4.99 16.33 5.98 16.66 7 17 C7 11.39 7 5.78 7 0 C8.32 0 9.64 0 11 0 C11.08132187 2.56314499 11.14064175 5.12368418 11.1875 7.6875 C11.22520508 8.7693457 11.22520508 8.7693457 11.26367188 9.87304688 C11.32624287 14.44072977 10.9217593 17.41893634 8 21 C5.5 21.5625 5.5 21.5625 3 21 C1.01044832 19.19947936 0.09424386 17.76159492 -0.23779297 15.07836914 C-0.29537892 12.79506076 -0.26132126 10.53278064 -0.1875 8.25 C-0.17396484 7.45722656 -0.16042969 6.66445312 -0.14648438 5.84765625 C-0.11125223 3.89814436 -0.05744821 1.94898374 0 0 Z " fill="#0F7E3D" transform="translate(165,135)"/>
<path d="M0 0 C1.32 0 2.64 0 4 0 C4.66993993 3.12430761 5.33539364 6.24955386 6 9.375 C6.19078125 10.26445312 6.3815625 11.15390625 6.578125 12.0703125 C6.75859375 12.92109375 6.9390625 13.771875 7.125 14.6484375 C7.29257813 15.43395996 7.46015625 16.21948242 7.6328125 17.02880859 C8 19 8 19 8 21 C6.68 21 5.36 21 4 21 C4 19.68 4 18.36 4 17 C2.68 17 1.36 17 0 17 C0 18.32 0 19.64 0 21 C-1.32 21 -2.64 21 -4 21 C-3.29843593 13.84404654 -1.69214979 6.98144819 0 0 Z " fill="#449967" transform="translate(181,135)"/>
<path d="M0 0 C3.96811453 1.32270484 6.52199419 2.58206095 9 6 C9.66575176 8.51227079 10.12387556 10.99247316 10.5078125 13.5625 C11.00148636 16.00736104 11.78651946 17.83378681 13 20 C13.33 20 13.66 20 14 20 C14 25.94 14 31.88 14 38 C13.01 38 12.02 38 11 38 C10.67 31.4 10.34 24.8 10 18 C8.35 17.67 6.7 17.34 5 17 C2.8827385 14.09291368 2.49899075 10.87606 1.9375 7.375 C1.3619665 3.56029279 1.3619665 3.56029279 0 0 Z " fill="#128041" transform="translate(8,90)"/>
<path d="M0 0 C1.32 0 2.64 0 4 0 C4.67055285 2.93666226 5.33659053 5.87422359 6 8.8125 C6.19078125 9.64587891 6.3815625 10.47925781 6.578125 11.33789062 C6.75859375 12.14033203 6.9390625 12.94277344 7.125 13.76953125 C7.29257813 14.50792236 7.46015625 15.24631348 7.6328125 16.00708008 C8 18 8 18 8 21 C6.68 21 5.36 21 4 21 C4 19.68 4 18.36 4 17 C2.68 17 1.36 17 0 17 C0 18.32 0 19.64 0 21 C-1.32 21 -2.64 21 -4 21 C-3.52380865 18.06198921 -3.04417738 15.12461186 -2.5625 12.1875 C-2.42779297 11.35412109 -2.29308594 10.52074219 -2.15429688 9.66210938 C-2.02216797 8.85966797 -1.89003906 8.05722656 -1.75390625 7.23046875 C-1.63345947 6.49207764 -1.5130127 5.75368652 -1.38891602 4.99291992 C-1 3 -1 3 0 0 Z " fill="#1A8447" transform="translate(76,135)"/>
<path d="M0 0 C1.32 0 2.64 0 4 0 C4.67055285 2.93666226 5.33659053 5.87422359 6 8.8125 C6.19078125 9.64587891 6.3815625 10.47925781 6.578125 11.33789062 C6.75859375 12.14033203 6.9390625 12.94277344 7.125 13.76953125 C7.29257813 14.50792236 7.46015625 15.24631348 7.6328125 16.00708008 C8 18 8 18 8 21 C6.68 20.67 5.36 20.34 4 20 C4 19.01 4 18.02 4 17 C2.68 17 1.36 17 0 17 C0 18.32 0 19.64 0 21 C-0.99 21 -1.98 21 -3 21 C-2.48462048 13.86606248 -1.55994099 6.98187183 0 0 Z " fill="#108040" transform="translate(117,135)"/>
<path d="M0 0 C0.99 0 1.98 0 3 0 C3 2.64 3 5.28 3 8 C4.32 8 5.64 8 7 8 C7 5.36 7 2.72 7 0 C7.99 0 8.98 0 10 0 C10 6.93 10 13.86 10 21 C9.01 21 8.02 21 7 21 C7 18.03 7 15.06 7 12 C5.68 12 4.36 12 3 12 C3 14.97 3 17.94 3 21 C2.01 21 1.02 21 0 21 C0 14.07 0 7.14 0 0 Z " fill="#107F3F" transform="translate(202,135)"/>
<path d="M0 0 C1.99954746 -0.04254356 4.00041636 -0.04080783 6 0 C7.58894072 1.58894072 7.16998411 3.24801424 7.1875 5.4375 C7.20167969 6.24058594 7.21585938 7.04367188 7.23046875 7.87109375 C7 10 7 10 5 12 C4.70768696 13.9812328 4.42197621 15.96468855 4.21875 17.95703125 C3.96344947 20.34135588 3.51219716 22.65852727 3 25 C2.34 25 1.68 25 1 25 C0.81824219 24.30132812 0.63648438 23.60265625 0.44921875 22.8828125 C0.19785156 21.97273438 -0.05351562 21.06265625 -0.3125 20.125 C-0.67794922 18.76761719 -0.67794922 18.76761719 -1.05078125 17.3828125 C-1.86669852 14.67886681 -1.86669852 14.67886681 -5 13 C-4.35546875 12.78601563 -3.7109375 12.57203125 -3.046875 12.3515625 C-0.72160885 11.1526477 -0.72160885 11.1526477 -0.390625 8.3984375 C-0.34421875 7.40070313 -0.2978125 6.40296875 -0.25 5.375 C-0.19328125 4.37210937 -0.1365625 3.36921875 -0.078125 2.3359375 C-0.05234375 1.56507812 -0.0265625 0.79421875 0 0 Z " fill="#E1EBE5" transform="translate(153,121)"/>
<path d="M0 0 C0.763125 0.20625 1.52625 0.4125 2.3125 0.625 C2.6425 2.275 2.9725 3.925 3.3125 5.625 C0.3425 5.13 0.3425 5.13 -2.6875 4.625 C-2.17058594 5.12128906 -1.65367187 5.61757812 -1.12109375 6.12890625 C4.29786351 11.71753731 4.29786351 11.71753731 4.375 16.5 C3.3125 19.625 3.3125 19.625 1.3125 21.625 C-1.1875 21.875 -1.1875 21.875 -3.6875 21.625 C-4.3475 20.965 -5.0075 20.305 -5.6875 19.625 C-5.6875 18.305 -5.6875 16.985 -5.6875 15.625 C-4.6975 15.625 -3.7075 15.625 -2.6875 15.625 C-2.6875 16.285 -2.6875 16.945 -2.6875 17.625 C-1.6975 17.625 -0.7075 17.625 0.3125 17.625 C-0.68969361 14.61841916 -1.40564977 12.87369138 -3.8125 10.75 C-5.6875 8.625 -5.6875 8.625 -6.125 5 C-5.9084375 3.329375 -5.9084375 3.329375 -5.6875 1.625 C-2.6875 -0.375 -2.6875 -0.375 0 0 Z " fill="#148142" transform="translate(195.6875,134.375)"/>
<path d="M0 0 C2.97 0 5.94 0 9 0 C8.46246904 6.18160604 6.45417612 11.326858 4 17 C5.65 17 7.3 17 9 17 C9 18.32 9 19.64 9 21 C6.03 21 3.06 21 0 21 C0.53753096 14.81839396 2.54582388 9.673142 5 4 C3.35 4 1.7 4 0 4 C0 2.68 0 1.36 0 0 Z " fill="#178244" transform="translate(62,135)"/>
<path d="M0 0 C2.64 0 5.28 0 8 0 C8 1.32 8 2.64 8 4 C6.35 4 4.7 4 3 4 C3 5.32 3 6.64 3 8 C4.65 8 6.3 8 8 8 C8 9.32 8 10.64 8 12 C6.35 12 4.7 12 3 12 C3 13.65 3 15.3 3 17 C4.65 17 6.3 17 8 17 C8 17.99 8 18.98 8 20 C5.36 20 2.72 20 0 20 C0 13.4 0 6.8 0 0 Z " fill="#0A7E3C" transform="translate(132,135)"/>
<path d="M0 0 C1.32 0 2.64 0 4 0 C4.66 1.98 5.32 3.96 6 6 C6.33 4.02 6.66 2.04 7 0 C8.32 0 9.64 0 11 0 C10.79503906 0.845625 10.59007813 1.69125 10.37890625 2.5625 C8.91982438 8.70600261 7.61628354 14.71390787 7 21 C6.01 21 5.02 21 4 21 C3.87882812 20.23816406 3.75765625 19.47632813 3.6328125 18.69140625 C2.61250208 12.40472436 1.44720271 6.20229732 0 0 Z " fill="#11803F" transform="translate(103,135)"/>
<path d="M0 0 C3.3 0 6.6 0 10 0 C10 3.3 10 6.6 10 10 C6.7 10 3.4 10 0 10 C0 6.7 0 3.4 0 0 Z " fill="#BEDDC3" transform="translate(64,118)"/>
<path d="M0 0 C0.99 0 1.98 0 3 0 C3.66 4.29 4.32 8.58 5 13 C6.32 13.33 7.64 13.66 9 14 C7.68 14 6.36 14 5 14 C4.7834375 15.8253125 4.7834375 15.8253125 4.5625 17.6875 C4.17219047 20.82670377 3.67648144 23.9075134 3 27 C-1.89206735 19.66189898 -0.1099092 8.47522038 0 0 Z " fill="#B1D3BF" transform="translate(176,121)"/>
<path d="M0 0 C-6.15369523 10.08698496 -6.15369523 10.08698496 -11 12 C-12.32 12 -13.64 12 -15 12 C-14.54726428 7.133091 -13.35474936 4.5580675 -10 1 C-6.78548731 -0.60725635 -3.56387464 -0.05748185 0 0 Z " fill="#A5D737" transform="translate(46,64)"/>
<path d="M0 0 C2.53494918 3.80242376 3.13181134 6.60090298 3.09765625 11.109375 C3.09282227 12.24052734 3.09282227 12.24052734 3.08789062 13.39453125 C3.07951172 14.17183594 3.07113281 14.94914062 3.0625 15.75 C3.05798828 16.54277344 3.05347656 17.33554688 3.04882812 18.15234375 C3.03708565 20.10159508 3.01915146 22.05080738 3 24 C-0.875 22.25 -0.875 22.25 -2 20 C-2.56913656 13.1174183 -1.59207945 6.6810477 0 0 Z " fill="#0D7E3D" transform="translate(23,52)"/>
<path d="M0 0 C5 5 5 5 7.25 7.4375 C18.52752209 17.94610013 29.24818304 19.51386058 44 20 C38.23422093 23.32897175 32.05854931 22.60590479 25.70703125 21.34765625 C14.24309891 18.21624214 6.36431795 12.04784602 0 2 C0 1.34 0 0.68 0 0 Z " fill="#ACD947" transform="translate(35,139)"/>
<path d="M0 0 C0.4125 0.37511719 0.825 0.75023437 1.25 1.13671875 C8.99134065 7.99679071 15.84964119 11.70497402 26 14 C25.01 15.485 25.01 15.485 24 17 C14.42243274 16.57433034 6.50896155 11.20641742 0.14453125 4.3203125 C-0.23316406 3.88460937 -0.61085937 3.44890625 -1 3 C-0.67 2.01 -0.34 1.02 0 0 Z " fill="#F3F6F2" transform="translate(38,146)"/>
<path d="M0 0 C0.33 0 0.66 0 1 0 C1.48452463 6.94485303 -0.30712509 13.2990368 -2 20 C-2.33 18.68 -2.66 17.36 -3 16 C-4.65 16 -6.3 16 -8 16 C-7.52140759 14.39566191 -7.04210442 12.79153584 -6.5625 11.1875 C-6.29566406 10.29417969 -6.02882813 9.40085938 -5.75390625 8.48046875 C-5.19612127 6.64526945 -4.60655425 4.81966274 -4 3 C-3.01 2.67 -2.02 2.34 -1 2 C-0.67 1.34 -0.34 0.68 0 0 Z " fill="#E3ECE6" transform="translate(74,136)"/>
<path d="M0 0 C3.07644715 -0.36193496 5.93249623 -0.48731247 9 0 C12.0625 2.5625 12.0625 2.5625 14 6 C14.3125 9.875 14.3125 9.875 14 13 C11.96166576 11.7260411 9.96147874 10.38938077 8 9 C8 8.34 8 7.68 8 7 C7.4225 6.731875 6.845 6.46375 6.25 6.1875 C3.94449957 4.97070811 1.97943808 3.69666121 0 2 C0 1.34 0 0.68 0 0 Z " fill="#F3C774" transform="translate(88,115)"/>
<path d="M0 0 C0.2475 1.093125 0.495 2.18625 0.75 3.3125 C2.08334119 7.24585652 2.78907585 7.75235309 6 10 C6 11.32 6 12.64 6 14 C5.01 14 4.02 14 3 14 C3 13.34 3 12.68 3 12 C2.01 12 1.02 12 0 12 C0.66 13.98 1.32 15.96 2 18 C1.01 18 0.02 18 -1 18 C-2.8156648 13.27927152 -4.35982744 8.10565957 -4 3 C-1.58278146 0 -1.58278146 0 0 0 Z " fill="#EAF0EC" transform="translate(190,138)"/>
<path d="M0 0 C2.31 0 4.62 0 7 0 C9 2 9 2 9.1953125 3.9453125 C9.13020833 5.96354167 9.06510417 7.98177083 9 10 C8.01 10 7.02 10 6 10 C6 8.02 6 6.04 6 4 C4.68 4 3.36 4 2 4 C2 9.28 2 14.56 2 20 C1.34 20 0.68 20 0 20 C0 13.4 0 6.8 0 0 Z " fill="#097E3D" transform="translate(86,135)"/>
<path d="M0 0 C2.5 0.125 2.5 0.125 3.5 1.125 C3.5979057 2.62238124 3.62974864 4.12442892 3.625 5.625 C3.62757813 6.4396875 3.63015625 7.254375 3.6328125 8.09375 C3.5 10.125 3.5 10.125 2.5 11.125 C0 11.25 0 11.25 -2.5 11.125 C-3.5 10.125 -3.5 10.125 -3.6328125 8.09375 C-3.63023437 7.2790625 -3.62765625 6.464375 -3.625 5.625 C-3.62757813 4.8103125 -3.63015625 3.995625 -3.6328125 3.15625 C-3.43435342 0.12099356 -3.05615366 0.15280768 0 0 Z " fill="#11803E" transform="translate(183.5,120.875)"/>
<path d="M0 0 C1.66611905 -0.042721 3.33382885 -0.04063832 5 0 C6 1 6 1 6.09765625 3.06640625 C6.08605469 3.89011719 6.07445312 4.71382813 6.0625 5.5625 C6.05347656 6.38878906 6.04445312 7.21507812 6.03515625 8.06640625 C6.01775391 9.02353516 6.01775391 9.02353516 6 10 C3.625 10.625 3.625 10.625 1 11 C-1 9 -1 9 -1.1875 5.5 C-1 2 -1 2 0 0 Z " fill="#7DB795" transform="translate(128,121)"/>
<path d="M0 0 C0.99 0 1.98 0 3 0 C3 0.66 3 1.32 3 2 C3.66 2 4.32 2 5 2 C5 2.66 5 3.32 5 4 C4.01 4 3.02 4 2 4 C2 9.28 2 14.56 2 20 C1.67 20 1.34 20 1 20 C0.67 21.98 0.34 23.96 0 26 C-0.33 26 -0.66 26 -1 26 C-1 19.07 -1 12.14 -1 5 C-2.32 5 -3.64 5 -5 5 C-5 4.34 -5 3.68 -5 3 C-5.66 2.67 -6.32 2.34 -7 2 C-5.68 1.67 -4.36 1.34 -3 1 C-3 1.99 -3 2.98 -3 4 C-2.01 3.34 -1.02 2.68 0 2 C0 1.34 0 0.68 0 0 Z " fill="#E3EFE6" transform="translate(163,130)"/>
<path d="M0 0 C1.65 0 3.3 0 5 0 C6 1 6 1 6.1328125 3.03125 C6.13023437 3.8459375 6.12765625 4.660625 6.125 5.5 C6.12757813 6.3146875 6.13015625 7.129375 6.1328125 7.96875 C6 10 6 10 5 11 C3.35 11 1.7 11 0 11 C0 7.37 0 3.74 0 0 Z " fill="#3C9763" transform="translate(154,121)"/>
<path d="M0 0 C0.99 0 1.98 0 3 0 C3 6.93 3 13.86 3 21 C2.01 21 1.02 21 0 21 C0 14.07 0 7.14 0 0 Z " fill="#0E7E3E" transform="translate(98,135)"/>
<path d="M0 0 C11.52164009 -0.18451025 11.52164009 -0.18451025 17 1 C17 1.33 17 1.66 17 2 C14.69 2 12.38 2 10 2 C10.02320312 2.74765625 10.04640625 3.4953125 10.0703125 4.265625 C10.09738281 5.74289063 10.09738281 5.74289063 10.125 7.25 C10.14820312 8.22453125 10.17140625 9.1990625 10.1953125 10.203125 C9.99862781 13.0196498 9.44568916 14.60949036 8 17 C6.80911014 11.61972975 5.7080481 6.54708616 6 1 C4.02 1 2.04 1 0 1 C0 0.67 0 0.34 0 0 Z " fill="#E9EFEB" transform="translate(74,133)"/>
<path d="M0 0 C3.65316671 1.24976756 4.78065836 1.67098753 7 5 C5.824375 4.855625 4.64875 4.71125 3.4375 4.5625 C0.53462964 4.52659878 -0.63455271 4.70242149 -2.9140625 6.55859375 C-4.08575112 7.84125728 -5.2449565 9.13544926 -6.390625 10.44140625 C-8 12 -8 12 -10.9375 12.4375 C-11.9584375 12.2209375 -11.9584375 12.2209375 -13 12 C-8.87675353 7.74790208 -4.48717034 3.86364295 0 0 Z " fill="#139120" transform="translate(68,100)"/>
<path d="M0 0 C2 2 2 2 2 5 C2.66 5 3.32 5 4 5 C4.66 6.32 5.32 7.64 6 9 C6.33 9 6.66 9 7 9 C7 14.94 7 20.88 7 27 C6.01 27 5.02 27 4 27 C3.67 20.4 3.34 13.8 3 7 C2.34 7 1.68 7 1 7 C0.67 4.69 0.34 2.38 0 0 Z " fill="#5FA47A" transform="translate(15,101)"/>
<path d="M0 0 C0.99 0.33 1.98 0.66 3 1 C3.33 1.99 3.66 2.98 4 4 C4.33 2.68 4.66 1.36 5 0 C5.66 0 6.32 0 7 0 C7 3.63 7 7.26 7 11 C6.01 11 5.02 11 4 11 C3.67 10.01 3.34 9.02 3 8 C2.67 8.99 2.34 9.98 2 11 C1.34 11 0.68 11 0 11 C0 7.37 0 3.74 0 0 Z " fill="#1D8548" transform="translate(145,121)"/>
<path d="M0 0 C0.99 0.33 1.98 0.66 3 1 C3.33 1.99 3.66 2.98 4 4 C4.33 2.68 4.66 1.36 5 0 C5.66 0 6.32 0 7 0 C7 3.63 7 7.26 7 11 C6.01 11 5.02 11 4 11 C3.67 10.01 3.34 9.02 3 8 C2.67 8.99 2.34 9.98 2 11 C1.34 11 0.68 11 0 11 C0 7.37 0 3.74 0 0 Z " fill="#157F3F" transform="translate(189,121)"/>
<path d="M0 0 C-8.59509285 3.75058597 -16.80621145 3.28499689 -26 3 C-25.360625 2.690625 -24.72125 2.38125 -24.0625 2.0625 C-22.06389179 1.1654837 -22.06389179 1.1654837 -21 0 C-18.22311455 -0.26558947 -15.47081108 -0.46948221 -12.6875 -0.625 C-11.91470703 -0.6765625 -11.14191406 -0.728125 -10.34570312 -0.78125 C-9.59611328 -0.82507813 -8.84652344 -0.86890625 -8.07421875 -0.9140625 C-7.04687622 -0.9752124 -7.04687622 -0.9752124 -5.9987793 -1.03759766 C-3.86112161 -0.99738765 -2.04809849 -0.59302894 0 0 Z " fill="#439765" transform="translate(82,163)"/>
<path d="M0 0 C0.66 0 1.32 0 2 0 C2 2.97 2 5.94 2 9 C2.66 9 3.32 9 4 9 C4 6.03 4 3.06 4 0 C4.99 0 5.98 0 7 0 C7.05399736 1.45792884 7.09279177 2.91642712 7.125 4.375 C7.14820313 5.18710938 7.17140625 5.99921875 7.1953125 6.8359375 C7 9 7 9 5 11 C2.375 10.625 2.375 10.625 0 10 C0 6.7 0 3.4 0 0 Z " fill="#077A36" transform="translate(136,121)"/>
<path d="M0 0 C4.8851084 0.44572157 7.22436769 2.58758609 10.75 5.875 C11.71421875 6.75929688 12.6784375 7.64359375 13.671875 8.5546875 C16 11 16 11 17 14 C12.19556743 12.51142813 9.25334099 9.82136612 5.6875 6.4375 C5.13771484 5.93025391 4.58792969 5.42300781 4.02148438 4.90039062 C2.6560137 3.62651674 1.32468546 2.31623451 0 1 C0 0.67 0 0.34 0 0 Z " fill="#E9F1EA" transform="translate(80,116)"/>
<path d="M0 0 C0.33 0 0.66 0 1 0 C1 6.93 1 13.86 1 21 C0.67 21 0.34 21 0 21 C-0.33 17.37 -0.66 13.74 -1 10 C-1.99 10 -2.98 10 -4 10 C-6.1875 8.125 -6.1875 8.125 -8 6 C-8 5.34 -8 4.68 -8 4 C-5.03 4.495 -5.03 4.495 -2 5 C-1.34 3.35 -0.68 1.7 0 0 Z " fill="#CBDFD3" transform="translate(201,135)"/>
<path d="M0 0 C9.24521086 -0.28158003 17.47687896 0.15084856 26 4 C22.98968256 4.93423645 22.13349732 5.04449911 19 4 C16.43365139 3.77281504 13.88321893 3.58391816 11.3125 3.4375 C10.61060547 3.39431641 9.90871094 3.35113281 9.18554688 3.30664062 C7.45724794 3.2008264 5.7286489 3.09993419 4 3 C4 2.34 4 1.68 4 1 C2.68 0.67 1.36 0.34 0 0 Z " fill="#27894F" transform="translate(57,83)"/>
<path d="M0 0 C0.99 0.33 1.98 0.66 3 1 C2.53007706 9.47097928 1.74640116 17.69187796 0 26 C-0.33 26 -0.66 26 -1 26 C-0.67 17.42 -0.34 8.84 0 0 Z " fill="#158040" transform="translate(28,63)"/>
<path d="M0 0 C1.32 0 2.64 0 4 0 C5.23076923 6.4 5.23076923 6.4 4.0625 9.4375 C3.711875 9.953125 3.36125 10.46875 3 11 C2.67 10.67 2.34 10.34 2 10 C1.34 11.32 0.68 12.64 0 14 C-2.13999677 9.72000646 -1.09321611 4.50951645 0 0 Z " fill="#158244" transform="translate(117,135)"/>
<path d="M0 0 C3.67301925 0.52471704 4.76482915 1.60959742 7.0625 4.4375 C6.7325 5.0975 6.4025 5.7575 6.0625 6.4375 C1.18585991 6.78583144 -1.70800005 5.85435712 -5.9375 3.4375 C-4.06535559 0.94130746 -3.1479846 0.46884877 0 0 Z " fill="#A2D62F" transform="translate(8.9375,106.5625)"/>
<path d="M0 0 C-3 1 -3 1 -6 0 C-8.84370451 -0.09668595 -11.6570727 -0.13923837 -14.5 -0.125 C-15.27214844 -0.12886719 -16.04429688 -0.13273437 -16.83984375 -0.13671875 C-20.14503737 -0.13099051 -22.84377498 -0.05207501 -26 1 C-26 0.34 -26 -0.32 -26 -1 C-26.66 -1.33 -27.32 -1.66 -28 -2 C-19.37992861 -4.75486817 -7.9854172 -3.9927086 0 0 Z " fill="#C6DDCF" transform="translate(84,89)"/>
<path d="M0 0 C1.32 0 2.64 0 4 0 C4.22151549 1.79008467 4.42682213 3.58218162 4.625 5.375 C4.74101563 6.37273437 4.85703125 7.37046875 4.9765625 8.3984375 C4.98429687 9.25695312 4.99203125 10.11546875 5 11 C4.34 11.66 3.68 12.32 3 13 C2.67 11.35 2.34 9.7 2 8 C1.34 8.99 0.68 9.98 0 11 C-1.26026798 8.47946405 -0.91874445 7.1457902 -0.5625 4.375 C-0.46066406 3.55773437 -0.35882813 2.74046875 -0.25390625 1.8984375 C-0.17011719 1.27195313 -0.08632812 0.64546875 0 0 Z " fill="#0D7E3D" transform="translate(76,135)"/>
<path d="M0 0 C0.99 0 1.98 0 3 0 C4.19287411 3.87684087 5 6.91621923 5 11 C4.34 11 3.68 11 3 11 C3 10.34 3 9.68 3 9 C2.01 9 1.02 9 0 9 C0 9.66 0 10.32 0 11 C-0.66 11 -1.32 11 -2 11 C-1.34 7.37 -0.68 3.74 0 0 Z " fill="#34915A" transform="translate(163,121)"/>
<path d="M0 0 C2.31 0 4.62 0 7 0 C6.52354792 4.28806873 5.34097516 6.26647487 2 9 C1.34 9 0.68 9 0 9 C0 6.03 0 3.06 0 0 Z " fill="#108F1C" transform="translate(40,113)"/>
<path d="M0 0 C1.32 0 2.64 0 4 0 C4.22245393 1.60226955 4.42746669 3.20696767 4.625 4.8125 C4.74101562 5.70582031 4.85703125 6.59914062 4.9765625 7.51953125 C5 10 5 10 3 13 C2.67 11.02 2.34 9.04 2 7 C1.34 8.32 0.68 9.64 0 11 C-1.28571429 3.57142857 -1.28571429 3.57142857 0 0 Z " fill="#097D3B" transform="translate(181,135)"/>
<path d="M0 0 C0.99 0 1.98 0 3 0 C3 6.93 3 13.86 3 21 C2.01 21 1.02 21 0 21 C-0.02687279 19.18757948 -0.04633715 17.37504767 -0.0625 15.5625 C-0.07410156 14.55316406 -0.08570313 13.54382813 -0.09765625 12.50390625 C0 10 0 10 1 9 C1.23075082 7.65252916 1.41153063 6.29622435 1.5625 4.9375 C1.706875 3.638125 1.85125 2.33875 2 1 C1.34 0.67 0.68 0.34 0 0 Z " fill="#087A35" transform="translate(159,135)"/>
<path d="M0 0 C2.5654594 2.5654594 2.54046087 4.47686668 3 8 C1.68 8 0.36 8 -1 8 C-0.67 5.36 -0.34 2.72 0 0 Z M4 4 C4.33 4 4.66 4 5 4 C5.66 7.63 6.32 11.26 7 15 C5.68 15 4.36 15 3 15 C2.97311849 13.35425434 2.95365877 11.70838587 2.9375 10.0625 C2.92589844 9.14597656 2.91429688 8.22945312 2.90234375 7.28515625 C3 5 3 5 4 4 Z " fill="#52A073" transform="translate(77,141)"/>
<path d="M0 0 C2.31 0 4.62 0 7 0 C7 0.66 7 1.32 7 2 C6.34 2 5.68 2 5 2 C5 4.97 5 7.94 5 11 C4.01 11 3.02 11 2 11 C2 8.03 2 5.06 2 2 C1.34 2 0.68 2 0 2 C0 1.34 0 0.68 0 0 Z " fill="#35905A" transform="translate(168,121)"/>
<path d="M0 0 C1.95979427 0.28168297 3.91782378 0.57566717 5.875 0.875 C7.51082031 1.11863281 7.51082031 1.11863281 9.1796875 1.3671875 C12 2 12 2 14 4 C10.04 4 6.08 4 2 4 C1.67 4.99 1.34 5.98 1 7 C-1 4 -1 4 -0.625 1.8125 C-0.41875 1.214375 -0.2125 0.61625 0 0 Z " fill="#EFEEB8" transform="translate(103,124)"/>
<path d="M0 0 C0.33 0 0.66 0 1 0 C1.33 4.29 1.66 8.58 2 13 C2.99 13.33 3.98 13.66 5 14 C2.36 14 -0.28 14 -3 14 C-2.69147815 12.041036 -2.3780582 10.08284287 -2.0625 8.125 C-1.88847656 7.03445312 -1.71445313 5.94390625 -1.53515625 4.8203125 C-1 2 -1 2 0 0 Z " fill="#DAE8DF" transform="translate(135,121)"/>
<path d="M0 0 C4.1724106 0.51881113 6.25416821 1.71151274 9.3125 4.5625 C10.00988281 5.20316406 10.70726563 5.84382813 11.42578125 6.50390625 C11.94527344 6.99761719 12.46476562 7.49132812 13 8 C10.47946405 9.26026798 9.1457902 8.91874445 6.375 8.5625 C5.55773437 8.46066406 4.74046875 8.35882813 3.8984375 8.25390625 C3.27195312 8.17011719 2.64546875 8.08632812 2 8 C3.32 7.67 4.64 7.34 6 7 C4.7499203 3.24976089 3.33541853 2.88151815 0 1 C0 0.67 0 0.34 0 0 Z " fill="#419563" transform="translate(85,90)"/>
<path d="M0 0 C0.33 1.65 0.66 3.3 1 5 C-1.64 4.67 -4.28 4.34 -7 4 C-7 2.68 -7 1.36 -7 0 C-4.3333581 -1.33332095 -2.83319697 -0.67102033 0 0 Z " fill="#22884D" transform="translate(198,135)"/>
<path d="M0 0 C1.32 0 2.64 0 4 0 C4 1.65 4 3.3 4 5 C5.98 5 7.96 5 10 5 C7.58798021 7.41201979 6.37036311 7.75925978 3 8 C0.6875 6.5625 0.6875 6.5625 -1 5 C-0.67 3.35 -0.34 1.7 0 0 Z " fill="#E6EFDB" transform="translate(76,152)"/>
<path d="M0 0 C0.99 0 1.98 0 3 0 C3.05382106 2.62527189 3.09358313 5.24944713 3.125 7.875 C3.14175781 8.62136719 3.15851563 9.36773437 3.17578125 10.13671875 C3.1933959 12.09194461 3.10320189 14.04742021 3 16 C2.34 16.66 1.68 17.32 1 18 C0.67 12.06 0.34 6.12 0 0 Z " fill="#2F8E58" transform="translate(173,135)"/>
<path d="M0 0 C3.96 0 7.92 0 12 0 C12 0.99 12 1.98 12 3 C8.04 3 4.08 3 0 3 C0 2.01 0 1.02 0 0 Z " fill="#189223" transform="translate(37,108)"/>
<path d="M0 0 C-0.33 0.99 -0.66 1.98 -1 3 C-3.50390625 3.94921875 -3.50390625 3.94921875 -6.5625 4.6875 C-7.57441406 4.93886719 -8.58632813 5.19023438 -9.62890625 5.44921875 C-10.41136719 5.63097656 -11.19382813 5.81273438 -12 6 C-11.67 5.01 -11.34 4.02 -11 3 C-10.34 3 -9.68 3 -9 3 C-9 2.34 -9 1.68 -9 1 C-5.8035914 -0.06546953 -3.34252724 -0.07427838 0 0 Z " fill="#0B7E3C" transform="translate(61,84)"/>
<path d="M0 0 C2.12508244 3.18762365 2.5020163 5.26512223 3 9 C1.68 9 0.36 9 -1 9 C-1 7.68 -1 6.36 -1 5 C-2.32 4.67 -3.64 4.34 -5 4 C-3.74458443 1.48916886 -2.49936512 1.12874554 0 0 Z " fill="#198547" transform="translate(186,147)"/>
<path d="M0 0 C1.65 0 3.3 0 5 0 C5 0.66 5 1.32 5 2 C4.01 2 3.02 2 2 2 C2 2.66 2 3.32 2 4 C2.99 4 3.98 4 5 4 C5 4.66 5 5.32 5 6 C4.01 6 3.02 6 2 6 C2 7.65 2 9.3 2 11 C1.34 11 0.68 11 0 11 C0 7.37 0 3.74 0 0 Z " fill="#168142" transform="translate(121,121)"/>
<path d="M0 0 C0.99 0.33 1.98 0.66 3 1 C3 3.64 3 6.28 3 9 C0 9 0 9 -2 8 C-1.34 5.36 -0.68 2.72 0 0 Z " fill="#1F864B" transform="translate(158,135)"/>
<path d="M0 0 C1.32 0 2.64 0 4 0 C3.34 3.63 2.68 7.26 2 11 C1.67 10.34 1.34 9.68 1 9 C0.01 8.67 -0.98 8.34 -2 8 C-1.34 5.36 -0.68 2.72 0 0 Z " fill="#21874B" transform="translate(110,135)"/>
<path d="M0 0 C0.66 0 1.32 0 2 0 C2 2.64 2 5.28 2 8 C0.34385343 8.38218767 -1.32457024 8.71395102 -3 9 C-4 8 -4 8 -4.0625 4.4375 C-4.041875 3.303125 -4.02125 2.16875 -4 1 C-3.67 1 -3.34 1 -3 1 C-3 2.98 -3 4.96 -3 7 C-2.01 7 -1.02 7 0 7 C0 4.69 0 2.38 0 0 Z " fill="#047933" transform="translate(132,123)"/>
<path d="M0 0 C0.66 0.33 1.32 0.66 2 1 C-0.2646629 4.05729491 -2.61327331 7.03716687 -5 10 C-6.32 9.34 -7.64 8.68 -9 8 C-6.03 5.36 -3.06 2.72 0 0 Z " fill="#D9EADC" transform="translate(50,119)"/>
<path d="M0 0 C3.3 0.66 6.6 1.32 10 2 C9.01 3.485 9.01 3.485 8 5 C1.25 4.25 1.25 4.25 -1 2 C-0.67 1.34 -0.34 0.68 0 0 Z " fill="#E1ECDC" transform="translate(54,158)"/>
<path d="M0 0 C1.4540625 0.0309375 1.4540625 0.0309375 2.9375 0.0625 C2.9375 1.3825 2.9375 2.7025 2.9375 4.0625 C0.9575 4.3925 -1.0225 4.7225 -3.0625 5.0625 C-3.625 3.125 -3.625 3.125 -4.0625 1.0625 C-3.0625 0.0625 -3.0625 0.0625 0 0 Z " fill="#1A8347" transform="translate(137.0625,142.9375)"/>
<path d="M0 0 C0.66 0 1.32 0 2 0 C2 3.63 2 7.26 2 11 C1.01 11 0.02 11 -1 11 C-2.60080151 6.99799622 -1.29279692 3.95443764 0 0 Z " fill="#23874C" transform="translate(194,121)"/>
<path d="M0 0 C0.99 0 1.98 0 3 0 C3 2.97 3 5.94 3 9 C2.01 9 1.02 9 0 9 C0 6.03 0 3.06 0 0 Z " fill="#419564" transform="translate(140,121)"/>
<path d="M0 0 C3.875 1.75 3.875 1.75 5 4 C5.13415472 6.6723621 5.04318541 9.32250488 5 12 C3.20931427 9.3139714 2.33944209 7.3373411 1.375 4.3125 C1.11460938 3.50425781 0.85421875 2.69601563 0.5859375 1.86328125 C0.39257812 1.24839844 0.19921875 0.63351563 0 0 Z " fill="#0A7D3B" transform="translate(13,94)"/>
<path d="M0 0 C0.33 1.32 0.66 2.64 1 4 C2.65 4 4.3 4 6 4 C6.33 4.99 6.66 5.98 7 7 C4.03 6.67 1.06 6.34 -2 6 C-2 5.34 -2 4.68 -2 4 C-1.34 4 -0.68 4 0 4 C0 2.68 0 1.36 0 0 Z " fill="#EFF4E9" transform="translate(61,152)"/>
<path d="M0 0 C1.98 0.495 1.98 0.495 4 1 C2.90931332 4.77545388 2.0916909 7.47043472 -1 10 C-1.125 3.375 -1.125 3.375 0 0 Z " fill="#DCE9E1" transform="translate(26,98)"/>
<path d="M0 0 C0.33 0 0.66 0 1 0 C1.33 2.97 1.66 5.94 2 9 C0.68 8.67 -0.64 8.34 -2 8 C-2.33 6.35 -2.66 4.7 -3 3 C-2.01 2.67 -1.02 2.34 0 2 C0 1.34 0 0.68 0 0 Z " fill="#288A51" transform="translate(123,147)"/>
<path d="M0 0 C1.32 0.66 2.64 1.32 4 2 C3.01 2.495 3.01 2.495 2 3 C2.33 4.65 2.66 6.3 3 8 C1.68 8.33 0.36 8.66 -1 9 C-1.80967438 6.08517222 -2.21845993 4.53886783 -1.0625 1.6875 C-0.711875 1.130625 -0.36125 0.57375 0 0 Z " fill="#D9E9D0" transform="translate(32,131)"/>
<path d="M0 0 C4.83256305 0.41421969 6.82679218 2.46413986 10 6 C7.8125 6.375 7.8125 6.375 5 6 C3.00977164 4.16038352 1.61010101 2.20813852 0 0 Z " fill="#0D8E18" transform="translate(96,126)"/>
<path d="M0 0 C0.33 0.66 0.66 1.32 1 2 C1.66 2 2.32 2 3 2 C2.67 4.31 2.34 6.62 2 9 C1.67 8.34 1.34 7.68 1 7 C0.01 7 -0.98 7 -2 7 C-1.34 4.69 -0.68 2.38 0 0 Z " fill="#DFEAE3" transform="translate(114,136)"/>
<path d="M0 0 C2.1991413 4.39828259 2.51855059 7.18550592 3 12 C2.01 12 1.02 12 0 12 C0 8.04 0 4.08 0 0 Z " fill="#FBBE23" transform="translate(89,101)"/>
<path d="M0 0 C3.77126791 1.01180358 4.78414572 1.67621858 7 5 C0.375 4.25 0.375 4.25 -3 2 C-2.01 1.34 -1.02 0.68 0 0 Z " fill="#21962B" transform="translate(68,100)"/>
<path d="M0 0 C2.91517292 1.07401108 4.77810176 1.77810176 7 4 C6.34 4 5.68 4 5 4 C5.350625 4.598125 5.70125 5.19625 6.0625 5.8125 C7 8 7 8 6 11 C5.34 9.02 4.68 7.04 4 5 C3.34 5 2.68 5 2 5 C1.34 3.35 0.68 1.7 0 0 Z " fill="#4D9C6D" transform="translate(8,90)"/>
<path d="M0 0 C0.99 0.33 1.98 0.66 3 1 C3 3.31 3 5.62 3 8 C2.01 8.33 1.02 8.66 0 9 C0 6.03 0 3.06 0 0 Z " fill="#067C3A" transform="translate(28,63)"/>
<path d="M0 0 C6.52307692 0.61538462 6.52307692 0.61538462 8.9375 2.5625 C9.288125 3.036875 9.63875 3.51125 10 4 C9.67 4.99 9.34 5.98 9 7 C8.34 6.01 7.68 5.02 7 4 C6.01 4 5.02 4 4 4 C1.8125 2 1.8125 2 0 0 Z " fill="#EED04B" transform="translate(89,117)"/>
<path d="M0 0 C3.7952131 1.49097658 5.61042731 3.75700849 8 7 C6.02 7 4.04 7 2 7 C1.34 4.69 0.68 2.38 0 0 Z " fill="#24894F" transform="translate(21,45)"/>
<path d="M0 0 C4.455 0.99 4.455 0.99 9 2 C8.67 2.66 8.34 3.32 8 4 C6.02 4 4.04 4 2 4 C1.34 2.68 0.68 1.36 0 0 Z " fill="#087C3A" transform="translate(52,161)"/>
<path d="M0 0 C1.32 0.66 2.64 1.32 4 2 C3.34 3.98 2.68 5.96 2 8 C1.01 8 0.02 8 -1 8 C-0.67 5.36 -0.34 2.72 0 0 Z " fill="#6FAF89" transform="translate(119,141)"/>
<path d="M0 0 C0.99 0 1.98 0 3 0 C3 2.31 3 4.62 3 7 C2.01 7 1.02 7 0 7 C0 4.69 0 2.38 0 0 Z " fill="#CFE1D7" transform="translate(182,123)"/>
<path d="M0 0 C0.33 0.66 0.66 1.32 1 2 C-1.25 4.5 -1.25 4.5 -4 7 C-5.32 7 -6.64 7 -8 7 C-5.42215154 4.35247996 -3.08351902 2.05567935 0 0 Z " fill="#FAD81A" transform="translate(108,109)"/>
<path d="M0 0 C0.99 0.33 1.98 0.66 3 1 C3 2.32 3 3.64 3 5 C2.01 5 1.02 5 0 5 C0 4.34 0 3.68 0 3 C-0.99 3 -1.98 3 -3 3 C-3.33 3.66 -3.66 4.32 -4 5 C-4 4.01 -4 3.02 -4 2 C-2.68 2 -1.36 2 0 2 C0 1.34 0 0.68 0 0 Z " fill="#D0E2D7" transform="translate(193,147)"/>
<path d="M0 0 C1.32 0 2.64 0 4 0 C4 1.65 4 3.3 4 5 C2.68 5 1.36 5 0 5 C0 3.35 0 1.7 0 0 Z " fill="#E8F1EA" transform="translate(64,123)"/>
<path d="M0 0 C2 3 2 3 2 7 C1.34 7 0.68 7 0 7 C0 6.34 0 5.68 0 5 C-0.99 5 -1.98 5 -3 5 C-3 5.66 -3 6.32 -3 7 C-3.66 7 -4.32 7 -5 7 C-4.67 6.01 -4.34 5.02 -4 4 C-2.68 4 -1.36 4 0 4 C0 2.68 0 1.36 0 0 Z " fill="#0E7D3A" transform="translate(166,125)"/>
<path d="M0 0 C2.25 0.25 2.25 0.25 4 1 C2.25 3.0625 2.25 3.0625 0 5 C-2.25 4.75 -2.25 4.75 -4 4 C-2.25 1.9375 -2.25 1.9375 0 0 Z " fill="#088C12" transform="translate(37,127)"/>
<path d="M0 0 C3.63 0.66 7.26 1.32 11 2 C11 2.33 11 2.66 11 3 C7.37 3 3.74 3 0 3 C0 2.01 0 1.02 0 0 Z " fill="#FDE81A" transform="translate(103,124)"/>
<path d="M0 0 C-5.445 1.485 -5.445 1.485 -11 3 C-11 2.01 -11 1.02 -11 0 C-6.79405774 -0.72795155 -4.19895255 -1.04973814 0 0 Z " fill="#FBE439" transform="translate(114,119)"/>
<path d="M0 0 C0.99 0 1.98 0 3 0 C4.23076923 6.4 4.23076923 6.4 3.0625 9.4375 C2.711875 9.953125 2.36125 10.46875 2 11 C0.875 3.25 0.875 3.25 2 1 C1.34 0.67 0.68 0.34 0 0 Z " fill="#057B36" transform="translate(118,135)"/>
<path d="M0 0 C0.99 0 1.98 0 3 0 C3 1.65 3 3.3 3 5 C2.01 5.33 1.02 5.66 0 6 C0 4.02 0 2.04 0 0 Z " fill="#E7F0EB" transform="translate(89,139)"/>
<path d="M0 0 C2.1875 0.3125 2.1875 0.3125 4 1 C2.35 2.32 0.7 3.64 -1 5 C-1.66 4.34 -2.32 3.68 -3 3 C-1.75 1.4375 -1.75 1.4375 0 0 Z " fill="#088D17" transform="translate(54,112)"/>
<path d="M0 0 C2.61500768 2.36595933 4.38999603 4.86049226 6 8 C5.67 8.66 5.34 9.32 5 10 C1.55783328 7.3401439 1.00495326 4.09711714 0 0 Z " fill="#F0AC39" transform="translate(81,105)"/>
</svg>
